<svg width="44" height="44" viewBox="0 0 44 44" fill="none" xmlns="http://www.w3.org/2000/svg">
<path d="M36.3637 41.2727C37.9903 41.2727 39.3091 39.9539 39.3091 38.3273C39.3091 36.7006 37.9903 35.3818 36.3637 35.3818C34.737 35.3818 33.4182 36.7006 33.4182 38.3273C33.4182 39.9539 34.737 41.2727 36.3637 41.2727Z" fill="black" stroke="black" stroke-width="3.91717" stroke-linecap="round" stroke-linejoin="round"/>
<path d="M16.7272 41.2727C18.3539 41.2727 19.6726 39.9539 19.6726 38.3273C19.6726 36.7006 18.3539 35.3818 16.7272 35.3818C15.1005 35.3818 13.7817 36.7006 13.7817 38.3273C13.7817 39.9539 15.1005 41.2727 16.7272 41.2727Z" fill="black" stroke="black" stroke-width="3.91717" stroke-linecap="round" stroke-linejoin="round"/>
<path d="M7.89091 5.92727H41.2727L37.3454 27.5273H11.8182L7.89091 5.92727ZM7.89091 5.92727C7.56363 4.61817 5.92727 2 2 2" stroke="black" stroke-width="3.91717" stroke-linecap="round" stroke-linejoin="round"/>
<path d="M37.3453 27.5272H11.818H8.34393C4.84019 27.5272 2.98169 29.0612 2.98169 31.4545C2.98169 33.8478 4.84019 35.3818 8.34393 35.3818H36.3635" stroke="black" stroke-width="3.91717" stroke-linecap="round" stroke-linejoin="round"/>
</svg>
