<svg width="33" height="33" viewBox="0 0 33 33" fill="none" xmlns="http://www.w3.org/2000/svg">
<path d="M28.9 16.5V31.07C28.9 31.5837 28.4837 32 27.97 32H5.03004C4.51641 32 4.10004 31.5837 4.10004 31.07V16.5" stroke="black" stroke-width="1.97762" stroke-linecap="round" stroke-linejoin="round"/>
<path d="M31.07 8.74998H1.93C1.41638 8.74998 1 9.16636 1 9.67998V15.57C1 16.0837 1.41638 16.5 1.93 16.5H31.07C31.5837 16.5 32 16.0837 32 15.57V9.67998C32 9.16636 31.5837 8.74998 31.07 8.74998Z" stroke="black" stroke-width="1.97762" stroke-linecap="round" stroke-linejoin="round"/>
<path d="M16.5 32V8.74998" stroke="black" stroke-width="1.97762" stroke-linecap="round" stroke-linejoin="round"/>
<path d="M16.5 8.75H9.52502C8.49731 8.75 7.51168 8.34174 6.78498 7.61504C6.05828 6.88834 5.65002 5.90271 5.65002 4.875C5.65002 3.84729 6.05828 2.86166 6.78498 2.13496C7.51168 1.40825 8.49731 1 9.52502 1C14.95 1 16.5 8.75 16.5 8.75Z" stroke="black" stroke-width="1.97762" stroke-linecap="round" stroke-linejoin="round"/>
<path d="M16.5 8.75H23.475C24.5027 8.75 25.4883 8.34174 26.2151 7.61504C26.9417 6.88834 27.35 5.90271 27.35 4.875C27.35 3.84729 26.9417 2.86166 26.2151 2.13496C25.4883 1.40825 24.5027 1 23.475 1C18.05 1 16.5 8.75 16.5 8.75Z" stroke="black" stroke-width="1.97762" stroke-linecap="round" stroke-linejoin="round"/>
</svg>
