<svg width="435" height="40" viewBox="0 0 435 40" fill="none" xmlns="http://www.w3.org/2000/svg">
<path d="M10.8385 29.7145C8.99049 29.7145 7.33449 29.4145 5.87049 28.8145C4.40649 28.2145 3.23049 27.3265 2.34249 26.1505C1.47849 24.9745 1.02249 23.5585 0.974494 21.9025H7.52649C7.62249 22.8385 7.94649 23.5585 8.49849 24.0625C9.05049 24.5425 9.77049 24.7825 10.6585 24.7825C11.5705 24.7825 12.2905 24.5785 12.8185 24.1705C13.3465 23.7385 13.6105 23.1505 13.6105 22.4065C13.6105 21.7825 13.3945 21.2665 12.9625 20.8585C12.5545 20.4505 12.0385 20.1145 11.4145 19.8505C10.8145 19.5865 9.95049 19.2865 8.82249 18.9505C7.19049 18.4465 5.85849 17.9425 4.82649 17.4385C3.79449 16.9345 2.90649 16.1905 2.16249 15.2065C1.41849 14.2225 1.04649 12.9385 1.04649 11.3545C1.04649 9.00252 1.89849 7.16652 3.60249 5.84652C5.30649 4.50252 7.52649 3.83052 10.2625 3.83052C13.0465 3.83052 15.2905 4.50252 16.9945 5.84652C18.6985 7.16652 19.6105 9.01452 19.7305 11.3905H13.0705C13.0225 10.5745 12.7225 9.93852 12.1705 9.48252C11.6185 9.00252 10.9105 8.76252 10.0465 8.76252C9.30249 8.76252 8.70249 8.96652 8.24649 9.37452C7.79049 9.75852 7.56249 10.3225 7.56249 11.0665C7.56249 11.8825 7.94649 12.5185 8.71449 12.9745C9.48249 13.4305 10.6825 13.9225 12.3145 14.4505C13.9465 15.0025 15.2665 15.5305 16.2745 16.0345C17.3065 16.5385 18.1945 17.2705 18.9385 18.2305C19.6825 19.1905 20.0545 20.4265 20.0545 21.9385C20.0545 23.3785 19.6825 24.6865 18.9385 25.8625C18.2185 27.0385 17.1625 27.9745 15.7705 28.6705C14.3785 29.3665 12.7345 29.7145 10.8385 29.7145ZM26.9389 7.28652C25.8589 7.28652 24.9709 6.97452 24.2749 6.35052C23.6029 5.70252 23.2669 4.91052 23.2669 3.97452C23.2669 3.01452 23.6029 2.22252 24.2749 1.59852C24.9709 0.950522 25.8589 0.626522 26.9389 0.626522C27.9949 0.626522 28.8589 0.950522 29.5309 1.59852C30.2269 2.22252 30.5749 3.01452 30.5749 3.97452C30.5749 4.91052 30.2269 5.70252 29.5309 6.35052C28.8589 6.97452 27.9949 7.28652 26.9389 7.28652ZM29.9989 9.37452V29.4625H23.8429V9.37452H29.9989ZM60.0921 9.15852C62.5881 9.15852 64.5681 9.91452 66.0321 11.4265C67.5201 12.9385 68.2641 15.0385 68.2641 17.7265V29.4625H62.1441V18.5545C62.1441 17.2585 61.7961 16.2625 61.1001 15.5665C60.4281 14.8465 59.4921 14.4865 58.2921 14.4865C57.0921 14.4865 56.1441 14.8465 55.4481 15.5665C54.7761 16.2625 54.4401 17.2585 54.4401 18.5545V29.4625H48.3201V18.5545C48.3201 17.2585 47.9721 16.2625 47.2761 15.5665C46.6041 14.8465 45.6681 14.4865 44.4681 14.4865C43.2681 14.4865 42.3201 14.8465 41.6241 15.5665C40.9521 16.2625 40.6161 17.2585 40.6161 18.5545V29.4625H34.4601V9.37452H40.6161V11.8945C41.2401 11.0545 42.0561 10.3945 43.0641 9.91452C44.0721 9.41052 45.2121 9.15852 46.4841 9.15852C47.9961 9.15852 49.3401 9.48252 50.5161 10.1305C51.7161 10.7785 52.6521 11.7025 53.3241 12.9025C54.0201 11.7985 54.9681 10.8985 56.1681 10.2025C57.3681 9.50652 58.6761 9.15852 60.0921 9.15852ZM92.4055 9.37452V29.4625H86.2495V26.7265C85.6255 27.6145 84.7735 28.3345 83.6935 28.8865C82.6375 29.4145 81.4615 29.6785 80.1655 29.6785C78.6295 29.6785 77.2735 29.3425 76.0975 28.6705C74.9215 27.9745 74.0095 26.9785 73.3615 25.6825C72.7135 24.3865 72.3895 22.8625 72.3895 21.1105V9.37452H78.5095V20.2825C78.5095 21.6265 78.8575 22.6705 79.5535 23.4145C80.2495 24.1585 81.1855 24.5305 82.3615 24.5305C83.5615 24.5305 84.5095 24.1585 85.2055 23.4145C85.9015 22.6705 86.2495 21.6265 86.2495 20.2825V9.37452H92.4055ZM102.983 2.82252V29.4625H96.8273V2.82252H102.983ZM106.22 19.3825C106.22 17.3185 106.604 15.5065 107.372 13.9465C108.164 12.3865 109.232 11.1865 110.576 10.3465C111.92 9.50652 113.42 9.08652 115.076 9.08652C116.492 9.08652 117.728 9.37452 118.784 9.95052C119.864 10.5265 120.692 11.2825 121.268 12.2185V9.37452H127.424V29.4625H121.268V26.6185C120.668 27.5545 119.828 28.3105 118.748 28.8865C117.692 29.4625 116.456 29.7505 115.04 29.7505C113.408 29.7505 111.92 29.3305 110.576 28.4905C109.232 27.6265 108.164 26.4145 107.372 24.8545C106.604 23.2705 106.22 21.4465 106.22 19.3825ZM121.268 19.4185C121.268 17.8825 120.836 16.6705 119.972 15.7825C119.132 14.8945 118.1 14.4505 116.876 14.4505C115.652 14.4505 114.608 14.8945 113.744 15.7825C112.904 16.6465 112.484 17.8465 112.484 19.3825C112.484 20.9185 112.904 22.1425 113.744 23.0545C114.608 23.9425 115.652 24.3865 116.876 24.3865C118.1 24.3865 119.132 23.9425 119.972 23.0545C120.836 22.1665 121.268 20.9545 121.268 19.4185ZM130.654 19.3825C130.654 17.3185 131.038 15.5065 131.806 13.9465C132.598 12.3865 133.666 11.1865 135.01 10.3465C136.354 9.50652 137.854 9.08652 139.51 9.08652C140.83 9.08652 142.03 9.36252 143.11 9.91452C144.214 10.4665 145.078 11.2105 145.702 12.1465V2.82252H151.858V29.4625H145.702V26.5825C145.126 27.5425 144.298 28.3105 143.218 28.8865C142.162 29.4625 140.926 29.7505 139.51 29.7505C137.854 29.7505 136.354 29.3305 135.01 28.4905C133.666 27.6265 132.598 26.4145 131.806 24.8545C131.038 23.2705 130.654 21.4465 130.654 19.3825ZM145.702 19.4185C145.702 17.8825 145.27 16.6705 144.406 15.7825C143.566 14.8945 142.534 14.4505 141.31 14.4505C140.086 14.4505 139.042 14.8945 138.178 15.7825C137.338 16.6465 136.918 17.8465 136.918 19.3825C136.918 20.9185 137.338 22.1425 138.178 23.0545C139.042 23.9425 140.086 24.3865 141.31 24.3865C142.534 24.3865 143.566 23.9425 144.406 23.0545C145.27 22.1665 145.702 20.9545 145.702 19.4185ZM165.456 29.7505C163.488 29.7505 161.712 29.3305 160.128 28.4905C158.568 27.6505 157.332 26.4505 156.42 24.8905C155.532 23.3305 155.088 21.5065 155.088 19.4185C155.088 17.3545 155.544 15.5425 156.456 13.9825C157.368 12.3985 158.616 11.1865 160.2 10.3465C161.784 9.50652 163.56 9.08652 165.528 9.08652C167.496 9.08652 169.272 9.50652 170.856 10.3465C172.44 11.1865 173.688 12.3985 174.6 13.9825C175.512 15.5425 175.968 17.3545 175.968 19.4185C175.968 21.4825 175.5 23.3065 174.564 24.8905C173.652 26.4505 172.392 27.6505 170.784 28.4905C169.2 29.3305 167.424 29.7505 165.456 29.7505ZM165.456 24.4225C166.632 24.4225 167.628 23.9905 168.444 23.1265C169.284 22.2625 169.704 21.0265 169.704 19.4185C169.704 17.8105 169.296 16.5745 168.48 15.7105C167.688 14.8465 166.704 14.4145 165.528 14.4145C164.328 14.4145 163.332 14.8465 162.54 15.7105C161.748 16.5505 161.352 17.7865 161.352 19.4185C161.352 21.0265 161.736 22.2625 162.504 23.1265C163.296 23.9905 164.28 24.4225 165.456 24.4225ZM185.39 12.7225C186.11 11.6185 187.01 10.7545 188.09 10.1305C189.17 9.48252 190.37 9.15852 191.69 9.15852V15.6745H189.998C188.462 15.6745 187.31 16.0105 186.542 16.6825C185.774 17.3305 185.39 18.4825 185.39 20.1385V29.4625H179.234V9.37452H185.39V12.7225Z" fill="black"/>
<path d="M207.52 29.4625L202.264 19.9225H200.788V29.4625H194.632V4.19052H204.964C206.956 4.19052 208.648 4.53852 210.04 5.23452C211.456 5.93052 212.512 6.89052 213.208 8.11452C213.904 9.31452 214.252 10.6585 214.252 12.1465C214.252 13.8265 213.772 15.3265 212.812 16.6465C211.876 17.9665 210.484 18.9025 208.636 19.4545L214.468 29.4625H207.52ZM200.788 15.5665H204.604C205.732 15.5665 206.572 15.2905 207.124 14.7385C207.7 14.1865 207.988 13.4065 207.988 12.3985C207.988 11.4385 207.7 10.6825 207.124 10.1305C206.572 9.57852 205.732 9.30252 204.604 9.30252H200.788V15.5665ZM237.052 19.0945C237.052 19.6705 237.016 20.2705 236.944 20.8945H223.012C223.108 22.1425 223.504 23.1025 224.2 23.7745C224.92 24.4225 225.796 24.7465 226.828 24.7465C228.364 24.7465 229.432 24.0985 230.032 22.8025H236.584C236.248 24.1225 235.636 25.3105 234.748 26.3665C233.884 27.4225 232.792 28.2505 231.472 28.8505C230.152 29.4505 228.676 29.7505 227.044 29.7505C225.076 29.7505 223.324 29.3305 221.788 28.4905C220.252 27.6505 219.052 26.4505 218.188 24.8905C217.324 23.3305 216.892 21.5065 216.892 19.4185C216.892 17.3305 217.312 15.5065 218.152 13.9465C219.016 12.3865 220.216 11.1865 221.752 10.3465C223.288 9.50652 225.052 9.08652 227.044 9.08652C228.988 9.08652 230.716 9.49452 232.228 10.3105C233.74 11.1265 234.916 12.2905 235.756 13.8025C236.62 15.3145 237.052 17.0785 237.052 19.0945ZM230.752 17.4745C230.752 16.4185 230.392 15.5785 229.672 14.9545C228.952 14.3305 228.052 14.0185 226.972 14.0185C225.94 14.0185 225.064 14.3185 224.344 14.9185C223.648 15.5185 223.216 16.3705 223.048 17.4745H230.752ZM239.076 19.4185C239.076 17.3305 239.496 15.5065 240.336 13.9465C241.2 12.3865 242.388 11.1865 243.9 10.3465C245.436 9.50652 247.188 9.08652 249.156 9.08652C251.676 9.08652 253.776 9.74652 255.456 11.0665C257.16 12.3865 258.276 14.2465 258.804 16.6465H252.252C251.7 15.1105 250.632 14.3425 249.048 14.3425C247.92 14.3425 247.02 14.7865 246.348 15.6745C245.676 16.5385 245.34 17.7865 245.34 19.4185C245.34 21.0505 245.676 22.3105 246.348 23.1985C247.02 24.0625 247.92 24.4945 249.048 24.4945C250.632 24.4945 251.7 23.7265 252.252 22.1905H258.804C258.276 24.5425 257.16 26.3905 255.456 27.7345C253.752 29.0785 251.652 29.7505 249.156 29.7505C247.188 29.7505 245.436 29.3305 243.9 28.4905C242.388 27.6505 241.2 26.4505 240.336 24.8905C239.496 23.3305 239.076 21.5065 239.076 19.4185ZM271.241 29.7505C269.273 29.7505 267.497 29.3305 265.913 28.4905C264.353 27.6505 263.117 26.4505 262.205 24.8905C261.317 23.3305 260.873 21.5065 260.873 19.4185C260.873 17.3545 261.329 15.5425 262.241 13.9825C263.153 12.3985 264.401 11.1865 265.985 10.3465C267.569 9.50652 269.345 9.08652 271.313 9.08652C273.281 9.08652 275.057 9.50652 276.641 10.3465C278.225 11.1865 279.473 12.3985 280.385 13.9825C281.297 15.5425 281.753 17.3545 281.753 19.4185C281.753 21.4825 281.285 23.3065 280.349 24.8905C279.437 26.4505 278.177 27.6505 276.569 28.4905C274.985 29.3305 273.209 29.7505 271.241 29.7505ZM271.241 24.4225C272.417 24.4225 273.413 23.9905 274.229 23.1265C275.069 22.2625 275.489 21.0265 275.489 19.4185C275.489 17.8105 275.081 16.5745 274.265 15.7105C273.473 14.8465 272.489 14.4145 271.313 14.4145C270.113 14.4145 269.117 14.8465 268.325 15.7105C267.533 16.5505 267.137 17.7865 267.137 19.4185C267.137 21.0265 267.521 22.2625 268.289 23.1265C269.081 23.9905 270.065 24.4225 271.241 24.4225ZM310.651 9.15852C313.147 9.15852 315.127 9.91452 316.591 11.4265C318.079 12.9385 318.823 15.0385 318.823 17.7265V29.4625H312.703V18.5545C312.703 17.2585 312.355 16.2625 311.659 15.5665C310.987 14.8465 310.051 14.4865 308.851 14.4865C307.651 14.4865 306.703 14.8465 306.007 15.5665C305.335 16.2625 304.999 17.2585 304.999 18.5545V29.4625H298.879V18.5545C298.879 17.2585 298.531 16.2625 297.835 15.5665C297.163 14.8465 296.227 14.4865 295.027 14.4865C293.827 14.4865 292.879 14.8465 292.183 15.5665C291.511 16.2625 291.175 17.2585 291.175 18.5545V29.4625H285.019V9.37452H291.175V11.8945C291.799 11.0545 292.615 10.3945 293.623 9.91452C294.631 9.41052 295.771 9.15852 297.043 9.15852C298.555 9.15852 299.899 9.48252 301.075 10.1305C302.275 10.7785 303.211 11.7025 303.883 12.9025C304.579 11.7985 305.527 10.8985 306.727 10.2025C307.927 9.50652 309.235 9.15852 310.651 9.15852ZM329.284 12.2185C329.884 11.2825 330.712 10.5265 331.768 9.95052C332.824 9.37452 334.06 9.08652 335.476 9.08652C337.132 9.08652 338.632 9.50652 339.976 10.3465C341.32 11.1865 342.376 12.3865 343.144 13.9465C343.936 15.5065 344.332 17.3185 344.332 19.3825C344.332 21.4465 343.936 23.2705 343.144 24.8545C342.376 26.4145 341.32 27.6265 339.976 28.4905C338.632 29.3305 337.132 29.7505 335.476 29.7505C334.084 29.7505 332.848 29.4625 331.768 28.8865C330.712 28.3105 329.884 27.5665 329.284 26.6545V39.0385H323.128V9.37452H329.284V12.2185ZM338.068 19.3825C338.068 17.8465 337.636 16.6465 336.772 15.7825C335.932 14.8945 334.888 14.4505 333.64 14.4505C332.416 14.4505 331.372 14.8945 330.508 15.7825C329.668 16.6705 329.248 17.8825 329.248 19.4185C329.248 20.9545 329.668 22.1665 330.508 23.0545C331.372 23.9425 332.416 24.3865 333.64 24.3865C334.864 24.3865 335.908 23.9425 336.772 23.0545C337.636 22.1425 338.068 20.9185 338.068 19.3825ZM366.498 19.0945C366.498 19.6705 366.462 20.2705 366.39 20.8945H352.458C352.554 22.1425 352.95 23.1025 353.646 23.7745C354.366 24.4225 355.242 24.7465 356.274 24.7465C357.81 24.7465 358.878 24.0985 359.478 22.8025H366.03C365.694 24.1225 365.082 25.3105 364.194 26.3665C363.33 27.4225 362.238 28.2505 360.918 28.8505C359.598 29.4505 358.122 29.7505 356.49 29.7505C354.522 29.7505 352.77 29.3305 351.234 28.4905C349.698 27.6505 348.498 26.4505 347.634 24.8905C346.77 23.3305 346.338 21.5065 346.338 19.4185C346.338 17.3305 346.758 15.5065 347.598 13.9465C348.462 12.3865 349.662 11.1865 351.198 10.3465C352.734 9.50652 354.498 9.08652 356.49 9.08652C358.434 9.08652 360.162 9.49452 361.674 10.3105C363.186 11.1265 364.362 12.2905 365.202 13.8025C366.066 15.3145 366.498 17.0785 366.498 19.0945ZM360.198 17.4745C360.198 16.4185 359.838 15.5785 359.118 14.9545C358.398 14.3305 357.498 14.0185 356.418 14.0185C355.386 14.0185 354.51 14.3185 353.79 14.9185C353.094 15.5185 352.662 16.3705 352.494 17.4745H360.198ZM381.985 9.15852C384.337 9.15852 386.209 9.92652 387.601 11.4625C389.017 12.9745 389.725 15.0625 389.725 17.7265V29.4625H383.605V18.5545C383.605 17.2105 383.257 16.1665 382.561 15.4225C381.865 14.6785 380.929 14.3065 379.753 14.3065C378.577 14.3065 377.641 14.6785 376.945 15.4225C376.249 16.1665 375.901 17.2105 375.901 18.5545V29.4625H369.745V9.37452H375.901V12.0385C376.525 11.1505 377.365 10.4545 378.421 9.95052C379.477 9.42252 380.665 9.15852 381.985 9.15852ZM402.175 29.7505C400.423 29.7505 398.863 29.4505 397.495 28.8505C396.127 28.2505 395.047 27.4345 394.255 26.4025C393.463 25.3465 393.019 24.1705 392.923 22.8745H399.007C399.079 23.5705 399.403 24.1345 399.979 24.5665C400.555 24.9985 401.263 25.2145 402.103 25.2145C402.871 25.2145 403.459 25.0705 403.867 24.7825C404.299 24.4705 404.515 24.0745 404.515 23.5945C404.515 23.0185 404.215 22.5985 403.615 22.3345C403.015 22.0465 402.043 21.7345 400.699 21.3985C399.259 21.0625 398.059 20.7145 397.099 20.3545C396.139 19.9705 395.311 19.3825 394.615 18.5905C393.919 17.7745 393.571 16.6825 393.571 15.3145C393.571 14.1625 393.883 13.1185 394.507 12.1825C395.155 11.2225 396.091 10.4665 397.315 9.91452C398.563 9.36252 400.039 9.08652 401.743 9.08652C404.263 9.08652 406.243 9.71052 407.683 10.9585C409.147 12.2065 409.987 13.8625 410.203 15.9265H404.515C404.419 15.2305 404.107 14.6785 403.579 14.2705C403.075 13.8625 402.403 13.6585 401.563 13.6585C400.843 13.6585 400.291 13.8025 399.907 14.0905C399.523 14.3545 399.331 14.7265 399.331 15.2065C399.331 15.7825 399.631 16.2145 400.231 16.5025C400.855 16.7905 401.815 17.0785 403.111 17.3665C404.599 17.7505 405.811 18.1345 406.747 18.5185C407.683 18.8785 408.499 19.4785 409.195 20.3185C409.915 21.1345 410.287 22.2385 410.311 23.6305C410.311 24.8065 409.975 25.8625 409.303 26.7985C408.655 27.7105 407.707 28.4305 406.459 28.9585C405.235 29.4865 403.807 29.7505 402.175 29.7505ZM412.853 19.3825C412.853 17.3185 413.237 15.5065 414.005 13.9465C414.797 12.3865 415.865 11.1865 417.209 10.3465C418.553 9.50652 420.053 9.08652 421.709 9.08652C423.125 9.08652 424.361 9.37452 425.417 9.95052C426.497 10.5265 427.325 11.2825 427.901 12.2185V9.37452H434.057V29.4625H427.901V26.6185C427.301 27.5545 426.461 28.3105 425.381 28.8865C424.325 29.4625 423.089 29.7505 421.673 29.7505C420.041 29.7505 418.553 29.3305 417.209 28.4905C415.865 27.6265 414.797 26.4145 414.005 24.8545C413.237 23.2705 412.853 21.4465 412.853 19.3825ZM427.901 19.4185C427.901 17.8825 427.469 16.6705 426.605 15.7825C425.765 14.8945 424.733 14.4505 423.509 14.4505C422.285 14.4505 421.241 14.8945 420.377 15.7825C419.537 16.6465 419.117 17.8465 419.117 19.3825C419.117 20.9185 419.537 22.1425 420.377 23.0545C421.241 23.9425 422.285 24.3865 423.509 24.3865C424.733 24.3865 425.765 23.9425 426.605 23.0545C427.469 22.1665 427.901 20.9545 427.901 19.4185Z" fill="#F55F1D"/>
</svg>
